<?xml version="1.0" encoding="iso-8859-1"?>
<!-- Generator: Adobe Illustrator 21.0.2, SVG Export Plug-In . SVG Version: 6.00 Build 0)  -->
<svg version="1.1" xmlns="http://www.w3.org/2000/svg" xmlns:xlink="http://www.w3.org/1999/xlink" x="0px" y="0px"
	 viewBox="0 0 64 64" style="enable-background:new 0 0 64 64;" xml:space="preserve">
<g id="css">
</g>
<g id="mobile_development">
</g>
<g id="code">
</g>
<g id="hardware_programming">
</g>
<g id="python">
</g>
<g id="development">
</g>
<g id="update">
</g>
<g id="maintenance">
	<g>
		<g>
			<path d="M35.9785,63h-7.96c-1.8652,0-3.3818-1.5176-3.3818-3.3818v-1.9824c-1.9346-0.5537-3.7979-1.3271-5.5586-2.3057
				l-1.4023,1.4023c-0.6377,0.6377-1.4873,0.9883-2.3916,0.9883c-0.002,0-0.0029,0-0.0039,0
				c-0.9043-0.001-1.752-0.3525-2.3867-0.9893l-5.6279-5.625c-0.6387-0.6387-0.9893-1.4893-0.9883-2.3955
				c0-0.9043,0.3525-1.752,0.9893-2.3877l1.4014-1.4014c-0.9766-1.7578-1.75-3.623-2.3057-5.5615H4.3828
				c-1.8652,0-3.3818-1.5166-3.3818-3.3818v-7.96c0-1.8652,1.5166-3.3818,3.3818-3.3818h1.9785
				c0.5547-1.9365,1.3281-3.7998,2.3057-5.5596l-1.4014-1.4014c-0.6387-0.6387-0.9893-1.4893-0.9883-2.3955
				c0-0.9043,0.3525-1.752,0.9893-2.3877l5.6279-5.6279c0.6338-0.6357,1.4814-0.9883,2.3857-0.9883
				c0.001-0.001,0.002-0.001,0.0039-0.001c0.9043,0,1.7539,0.3516,2.3916,0.9893l1.4023,1.4023
				c1.7607-0.9785,3.624-1.752,5.5586-2.3057V4.3818C24.6367,2.5176,26.1533,1,28.0186,1h7.96c1.8643,0,3.3809,1.5176,3.3809,3.3818
				v1.9805c1.9385,0.5557,3.8037,1.3291,5.5625,2.3057l1.4023-1.4033c0.6338-0.6357,1.4814-0.9883,2.3857-0.9883
				c0.001-0.001,0.002-0.001,0.0039-0.001c0.9043,0,1.7539,0.3516,2.3916,0.9893l5.626,5.6299
				c0.6357,0.6338,0.9883,1.4814,0.9883,2.3857c0.001,0.9063-0.3496,1.7568-0.9883,2.3955l-1.4014,1.4023
				c0.9785,1.7607,1.751,3.625,2.3047,5.5586h1.9824c1.8652,0,3.3818,1.5166,3.3818,3.3818v7.96
				c0,1.8652-1.5166,3.3818-3.3818,3.3818h-1.9824c-0.5518,1.9307-1.3252,3.7959-2.3057,5.5615l1.4023,1.4033
				c0.6357,0.6338,0.9883,1.4814,0.9883,2.3857c0.001,0.9063-0.3496,1.7568-0.9883,2.3955l-5.626,5.626
				c-0.6377,0.6377-1.4873,0.9883-2.3916,0.9883c-0.002,0-0.0029,0-0.0039,0c-0.9043-0.001-1.752-0.3525-2.3867-0.9893
				l-1.4014-1.4014c-1.7637,0.9795-3.6289,1.7529-5.5625,2.3086v1.9795C39.3594,61.4824,37.8428,63,35.9785,63z M18.9121,53.0811
				c0.1758,0,0.3525,0.0459,0.5117,0.1406c2.0166,1.2002,4.1895,2.1016,6.459,2.6797c0.4434,0.1123,0.7539,0.5117,0.7539,0.9688
				v2.748c0,0.7617,0.6201,1.3818,1.3818,1.3818h7.96c0.7617,0,1.3809-0.6201,1.3809-1.3818V56.874
				c0-0.457,0.3096-0.8555,0.752-0.9688c2.2695-0.5801,4.4443-1.4834,6.4658-2.6836c0.3945-0.2334,0.8955-0.1709,1.2178,0.1523
				l1.9434,1.9443c0.2588,0.2598,0.6035,0.4014,0.9736,0.4023c0,0,0.001,0,0.002,0c0.3701,0,0.7178-0.1436,0.9775-0.4023
				l5.626-5.626c0.2598-0.2607,0.4033-0.6084,0.4023-0.9795c0-0.3691-0.1426-0.7148-0.4014-0.9717l-1.9443-1.9463
				c-0.3232-0.3232-0.3857-0.8242-0.1523-1.2178c1.2021-2.0244,2.1035-4.1982,2.6787-6.4629
				c0.1123-0.4434,0.5117-0.7539,0.9688-0.7539h2.748c0.7617,0,1.3818-0.6201,1.3818-1.3818v-7.96
				c0-0.7617-0.6201-1.3818-1.3818-1.3818h-2.748c-0.457,0-0.8564-0.3105-0.9688-0.7539c-0.5771-2.2686-1.4785-4.4424-2.6787-6.46
				c-0.2344-0.3926-0.1709-0.8945,0.1523-1.2178l1.9434-1.9434c0.2598-0.2607,0.4033-0.6084,0.4023-0.9795
				c0-0.3691-0.1426-0.7148-0.4014-0.9717l-5.627-5.6318c-0.2598-0.2598-0.6074-0.4023-0.9775-0.4023c-0.001,0-0.001,0-0.002,0
				c-0.3691,0-0.7148,0.1426-0.9717,0.4014l-1.9453,1.9453c-0.3232,0.3232-0.8242,0.3857-1.2178,0.1523
				c-2.0137-1.1963-4.1885-2.0977-6.4658-2.6797c-0.4424-0.1133-0.752-0.5117-0.752-0.9688V4.3818
				C37.3594,3.6201,36.7402,3,35.9785,3h-7.96c-0.7617,0-1.3818,0.6201-1.3818,1.3818V7.127c0,0.457-0.3105,0.8564-0.7539,0.9688
				c-2.2695,0.5781-4.4424,1.4795-6.459,2.6797c-0.3926,0.2344-0.8955,0.1709-1.2188-0.1523l-1.9434-1.9443
				c-0.2598-0.2598-0.6074-0.4023-0.9775-0.4023c-0.001,0-0.001,0-0.002,0c-0.3691,0-0.7148,0.1426-0.9717,0.4014l-5.6309,5.6309
				c-0.2598,0.2588-0.4023,0.6045-0.4023,0.9736c-0.001,0.3711,0.1426,0.7188,0.4023,0.9795l1.9434,1.9434
				c0.3232,0.3232,0.3867,0.8252,0.1523,1.2188c-1.1992,2.0137-2.1006,4.1865-2.6797,6.46
				c-0.1123,0.4424-0.5117,0.7529-0.9688,0.7529H4.3828c-0.7617,0-1.3818,0.6201-1.3818,1.3818v7.96
				c0,0.7617,0.6201,1.3818,1.3818,1.3818H7.127c0.457,0,0.8555,0.3096,0.9688,0.752c0.582,2.2773,1.4834,4.4521,2.6797,6.4648
				c0.2334,0.3926,0.1709,0.8945-0.1523,1.2178l-1.9434,1.9443c-0.2598,0.2588-0.4023,0.6045-0.4023,0.9736
				c-0.001,0.3711,0.1426,0.7188,0.4023,0.9795l5.6289,5.626c0.2588,0.2598,0.6035,0.4014,0.9736,0.4023c0,0,0.001,0,0.002,0
				c0.3701,0,0.7178-0.1436,0.9775-0.4023l1.9434-1.9443C18.3975,53.1816,18.6533,53.0811,18.9121,53.0811z M25.6367,7.127h0.0098
				H25.6367z"/>
		</g>
		<g>
			<path d="M31.998,52.1592c-11.1162,0-20.1602-9.0439-20.1602-20.1602c0-11.1172,9.0439-20.1611,20.1602-20.1611
				s20.1602,9.0439,20.1602,20.1611C52.1582,43.1152,43.1143,52.1592,31.998,52.1592z M31.998,13.8379
				c-10.0137,0-18.1602,8.1475-18.1602,18.1611s8.1465,18.1602,18.1602,18.1602s18.1602-8.1465,18.1602-18.1602
				S42.0117,13.8379,31.998,13.8379z"/>
		</g>
		<g>
			<path d="M24.0313,38.1484c-0.2207,0-0.4424-0.0723-0.627-0.2217l-6.376-5.1494c-0.2354-0.1904-0.3721-0.4766-0.3721-0.7783
				c0-0.3027,0.1367-0.5879,0.3721-0.7783l6.376-5.1475c0.4297-0.3477,1.0586-0.2793,1.4063,0.1504
				c0.3467,0.4297,0.2793,1.0596-0.1504,1.4063L19.248,31.999l5.4121,4.3711c0.4297,0.3477,0.4971,0.9766,0.1504,1.4063
				C24.6123,38.0215,24.3232,38.1484,24.0313,38.1484z"/>
		</g>
		<g>
			<path d="M30.1641,38.1484c-0.1113,0-0.2246-0.0186-0.3359-0.0576c-0.5195-0.1855-0.791-0.7578-0.6064-1.2783l3.6689-10.2969
				c0.1855-0.5205,0.7539-0.791,1.2783-0.6064c0.5195,0.1855,0.791,0.7578,0.6064,1.2783l-3.6689,10.2969
				C30.96,37.8936,30.5752,38.1484,30.1641,38.1484z"/>
		</g>
		<g>
			<path d="M39.9346,38.1484c-0.292,0-0.5811-0.127-0.7793-0.3721c-0.3467-0.4297-0.2793-1.0586,0.1504-1.4063l5.4121-4.3711
				l-5.4121-4.3691c-0.4297-0.3467-0.4971-0.9766-0.1504-1.4063c0.3477-0.4297,0.9766-0.498,1.4063-0.1504l6.376,5.1475
				c0.2354,0.1904,0.3721,0.4756,0.3721,0.7783c0,0.3018-0.1367,0.5879-0.3721,0.7783l-6.376,5.1494
				C40.377,38.0762,40.1553,38.1484,39.9346,38.1484z"/>
		</g>
		<g>
			<path d="M56.5322,33.0117c-0.3105,0-0.6143-0.1445-0.8066-0.4199l-0.0137-0.0195c-0.3164-0.4521-0.207-1.0762,0.2461-1.3926
				c0.4502-0.3164,1.0762-0.208,1.3926,0.2461c0.3164,0.4521,0.2139,1.0859-0.2393,1.4023
				C56.9346,32.9521,56.7314,33.0117,56.5322,33.0117z"/>
		</g>
		<g>
			<path d="M7.4648,33.0107c-0.3623,0-0.71-0.1973-0.8838-0.5449l-0.0098-0.0195c-0.2471-0.4941-0.0469-1.0947,0.4473-1.3418
				c0.4941-0.2461,1.0947-0.0469,1.3418,0.4473s0.0518,1.1045-0.4424,1.3516C7.7715,32.9766,7.6172,33.0107,7.4648,33.0107z"/>
		</g>
		<g>
			<path d="M31.9971,57.5449c-0.3477,0-0.6836-0.1826-0.8643-0.5117l-0.0107-0.0195c-0.2666-0.4834-0.0898-1.0918,0.3945-1.3574
				c0.4814-0.2656,1.0918-0.0908,1.3574,0.3945c0.2666,0.4834,0.0957,1.1016-0.3887,1.3672
				C32.3301,57.5039,32.1621,57.5449,31.9971,57.5449z"/>
		</g>
		<g>
			<path d="M31.998,8.4766c-0.3232,0-0.6387-0.1572-0.8291-0.4512l-0.0107-0.0166c-0.2998-0.4639-0.167-1.082,0.2969-1.3828
				c0.4639-0.2998,1.083-0.167,1.3828,0.2969s0.1729,1.0908-0.291,1.3906C32.377,8.4238,32.1865,8.4766,31.998,8.4766z"/>
		</g>
		<g>
			<path d="M49.4629,15.1943c-0.293,0-0.582-0.1289-0.7773-0.3799l-0.0137-0.0176c-0.3398-0.4365-0.2607-1.0645,0.1748-1.4033
				c0.4375-0.3408,1.0645-0.2598,1.4033,0.1748c0.3398,0.4365,0.2676,1.0732-0.168,1.4121
				C49.8965,15.125,49.6787,15.1943,49.4629,15.1943z"/>
		</g>
		<g>
			<path d="M14.5361,15.1934c-0.3477,0-0.6826-0.1807-0.8643-0.5078l-0.0098-0.0176c-0.2686-0.4824-0.0947-1.0908,0.3887-1.3594
				c0.4814-0.2705,1.0918-0.0947,1.3594,0.3887c0.2686,0.4824,0.0996,1.0996-0.3838,1.3682
				C14.8701,15.1523,14.7021,15.1934,14.5361,15.1934z"/>
		</g>
		<g>
			<path d="M49.4629,50.8291c-0.293,0-0.582-0.1289-0.7773-0.3799l-0.0137-0.0176c-0.3398-0.4365-0.2607-1.0645,0.1748-1.4033
				c0.4375-0.3408,1.0645-0.2588,1.4033,0.1748c0.3398,0.4365,0.2676,1.0732-0.168,1.4121
				C49.8965,50.7598,49.6787,50.8291,49.4629,50.8291z"/>
		</g>
		<g>
			<path d="M14.5361,50.8281c-0.3477,0-0.6826-0.1807-0.8643-0.5078l-0.0098-0.0176c-0.2686-0.4824-0.0947-1.0908,0.3887-1.3594
				c0.4814-0.2705,1.0918-0.0938,1.3594,0.3887c0.2686,0.4824,0.0996,1.0996-0.3838,1.3682
				C14.8701,50.7871,14.7021,50.8281,14.5361,50.8281z"/>
		</g>
	</g>
</g>
<g id="peformance_testing">
</g>
<g id="programming">
</g>
<g id="hacker">
</g>
<g id="web_programming">
</g>
<g id="html">
</g>
<g id="typing">
</g>
<g id="search_1_">
</g>
<g id="android">
</g>
<g id="coding">
</g>
<g id="file">
</g>
<g id="api">
</g>
<g id="java">
</g>
<g id="xml">
</g>
<g id="security">
</g>
<g id="algorithm">
</g>
<g id="php">
</g>
<g id="eror">
</g>
<g id="bug">
</g>
<g id="c_x2B__x2B_">
</g>
<g id="search">
</g>
<g id="binary">
</g>
<g id="database_sql">
</g>
</svg>
